<svg viewBox="-50 -43 120 100" 
    version="1.1" 
    xmlns="http://www.w3.org/2000/svg" 
    width="120" 
    height="100">
    <style>
        .default-visible {
            fill: #ffffff;
            stroke: #3b3b3b;
            fill-rule: evenodd;
            stroke-width: 0.5;
        }
        .test {
            display:None;
            fill: #993333;
            opacity: 0.7;
        }
    </style>
    <rect class="test" 
        x="-50" y="-43" 
        width="120" height="100"  />
    <path id="ftw-initialien" class="default-visible"
        d="m 9.491,49.672 a 2.222,2.222 0 0,1 -1.232,-2.211 c 0.360,-3.646 0.782,-11.211 1.090,-18.483 q 0.139,-3.282 0.245,-6.342 l -16.968,24.947 a 2.222,2.222 0 0,1 -1.181,0.873 l -2.686,0.825 a 50.5,50.5 0 0,1 -4.777,-1.363 a 2.222,2.222 0 0,1 0.022,-0.528 l 5.807,-35.855 c -2.706,0.072 -3.908,0.224 -4.787,0.481 l -0.523,0.174 a 2.222,2.222 0 0,1 -0.043,0.016 q -1.080,0.396 -1.636,1.070 q -0.866,0.934 -0.911,2.848 l 0.154,1.656 q 0.310,1.757 1.818,4.060 a 2.222,2.222 0 0,1 -0.677,3.100 l -5.312,3.322 a 2.222,2.222 0 0,1 -3.100,-0.759 q -1.151,-1.939 -1.676,-4.050 q -0.402,-1.666 -0.398,-3.444 l 0.170,-2.171 q 0.417,-2.575 1.696,-4.807 l -1.999,1.919 q -4.120,3.928 -8.443,5.302 q -2.434,0.718 -5.05,0.692 q -1.464,-0.004 -3.868,-0.226 a 3.232,3.232 0 0,1 -1.302,-0.410 a 50.5,50.5 0 0,1 -1.474,-3.797 a 3.232,3.232 0 0,1 0.161,-0.406 l 2.191,-4.605 a 3.232,3.232 0 0,1 3.009,-1.838 l 4.706,0.139 c 2.383,0.008 3.373,-0.341 3.726,-0.644 q 0.495,-0.158 1.272,-2.373 q 0.731,-2.353 1.363,-7.443 a 3.232,3.232 0 0,1 0.001,-0.008 l 0.583,-4.494 a 3.232,3.232 0 0,1 -0.860,-4.444 l 1.737,-2.626 l 1.767,-14.039 q -3.898,0.224 -5.05,1.888 q -1.302,1.333 -1.01,4.807 l 0.254,1.474 q 0.274,1.383 1.747,4.555 a 3.232,3.232 0 0,1 -1.535,4.272 l -5.615,2.686 a 3.232,3.232 0 0,1 -4.393,-1.717 q -1.090,-2.636 -1.515,-4.575 l -0.279,-1.676 q -0.662,-5.696 1.696,-10.605 a 50.5,50.5 0 0,1 1.626,-2.646 q 1.141,-1.504 2.626,-2.706 a 3.232,3.232 0 0,1 0.042,-0.033 q 1.131,-0.884 2.403,-1.595 c 3.918,-2.191 8.595,-2.969 15.049,-2.969 a 3.232,3.232 0 0,1 0.024,0 l 9.483,0.071 q 3.110,-0.002 4.747,-0.652 q 1.151,-0.409 2.484,-1.343 a 3.232,3.232 0 0,1 5.05,3.131 q -0.108,0.735 -0.225,1.262 l -0.052,0.225 q 5.302,-3.110 12.625,-3.141 a 3.232,3.232 0 0,1 0.137,0.003 l 11.615,0.496 l 3.575,0.112 l 0.185,-0.009 l 0.028,-0.037 l 0.545,-0.960 l 0.837,-1.646 a 3.232,3.232 0 0,1 2.565,-1.747 a 50.5,50.5 0 0,1 4.393,3.979 a 3.232,3.232 0 0,1 -0.035,0.613 c -0.264,1.838 -0.560,3.343 -0.886,4.524 c -0.349,1.191 -0.906,2.545 -2.252,3.535 c -1.585,1.080 -3.009,1.020 -4.100,1.050 l -0.736,-0.007 c -0.885,-0.024 -1.888,-0.105 -5.575,-0.420 l -2.494,15.554 q -0.358,3.009 -1.555,5.575 l -0.628,1.171 q 2.686,-0.156 4.666,-0.427 a 3.232,3.232 0 0,1 3.636,3.726 l -0.077,0.474 a 3.232,3.232 0 0,1 -1.555,2.272 q -2.040,1.272 -4.292,2.080 l -0.491,0.155 a 2.222,2.222 0 0,1 0.526,1.585 l -0.351,5.504 l -0.637,12.423 l -0.407,9.584 c 5.262,-6.352 8.120,-10.403 10.201,-14.241 l 0.425,-0.798 q 3.161,-6.332 3.151,-10.302 q -0.005,-1.959 -0.503,-3.060 q -0.396,-0.988 -1.494,-2.131 a 2.222,2.222 0 0,1 0.137,-3.211 q 1.222,-1.090 2.323,-1.797 q 1.201,-0.762 2.737,-1.454 a 2.222,2.222 0 0,1 1.585,-0.110 q 1.333,0.386 2.131,0.728 l 1.161,0.602 a 2.222,2.222 0 0,1 0.884,0.936 q 0.630,1.222 0.964,2.525 q 0.346,1.434 0.329,3.080 c -0.087,8.069 -5.171,16.362 -18.584,32.825 c -2.706,3.343 -4.070,5.080 -5.221,6.686 q -1.070,1.504 -2.424,3.595 a 2.222,2.222 0 0,1 -0.355,0.419 a 50.5,50.5 0 0,1 -7.019,1.838 z m -8.221,-39.693 q 1.212,-0.701 2.373,-1.838 a 2.222,2.222 0 0,0 0.437,-2.646 q 6.161,0.016 9.564,-0.118 l -0.384,0.152 a 2.222,2.222 0 0,0 -1.090,0.936 c -1.686,2.868 -6.090,9.554 -10.605,16.16 q -2.302,3.393 -4.484,6.565 l 3.302,-18.786 z m -0.364,-5.656 c -10.009,0.115 -12.625,0.111 -14.948,0.619 l -1.646,0.470 q -4.050,1.333 -6.898,4.029 l 0.540,-0.926 q 2.100,-3.989 2.696,-9.514 a 3.232,3.232 0 0,0 0.001,-0.008 l 0.524,-4.120 c 1.323,-0.075 2.413,-0.144 3.292,-0.206 c 0.931,-0.074 1.282,-0.078 1.939,-0.186 q 1.403,-0.147 2.888,-0.856 q 1.787,-1.060 2.979,-2.595 a 3.232,3.232 0 0,0 -2.424,-5.363 l -7.514,0 l 1.474,-11.615 l 8.443,0.209 a 3.232,3.232 0 0,0 1.434,-0.295 q -0.549,1.090 -0.892,2.272 q -0.692,2.393 -0.471,4.989 l 0.363,2.232 q 0.594,2.393 2.050,4.777 a 3.232,3.232 0 0,0 4.615,0.989 l 4.171,-2.898 a 3.232,3.232 0 0,0 1.070,-4.04 c -0.957,-2.009 -1.282,-2.848 -1.403,-3.413 q -0.081,-0.349 -0.132,-0.925 q -0.112,-2.02 0.583,-2.878 q 0.414,-0.643 1.414,-1.151 a 3.232,3.232 0 0,0 0.024,-0.012 q 0.830,-0.580 5.241,-0.661 l 0.576,0.005 l 1.070,0.037 l -2.535,15.756 a 3.232,3.232 0 0,0 -0.002,0.011 c -0.753,5.423 -1.757,7.332 -1.969,7.241 q 0.042,0.235 -2.343,0.436 a 3.232,3.232 0 0,0 -2.363,1.191 l -1.858,2.302 a 3.232,3.232 0 0,0 0.021,4.090 z" />
</svg>
