<?xml version="1.0" encoding="UTF-8" standalone="no"?>
<!-- Created with Inkscape (http://www.inkscape.org/) -->

<svg
   width="100mm"
   height="100mm"
   viewBox="50 50 100 100"
   version="1.1"
   id="svg1"
   xml:space="preserve"
   xmlns:xlink="http://www.w3.org/1999/xlink"
   xmlns="http://www.w3.org/2000/svg"
   xmlns:svg="http://www.w3.org/2000/svg"><defs
     id="defs1" />
     <g
     id="layer2"><path
       style="display:inline;fill:#ffffff;stroke-width:1.94029"
       d="M 96.073475,149.93504 C 83.604341,148.47133 73.615442,143.92022 65.308,135.91781 57.804591,128.68989 52.581051,119.1823 50.82517,109.55701 c -0.742327,-4.06925 -0.831942,-5.11486 -0.8248,-9.623691 0.0059,-3.670724 0.06617,-4.75265 0.384816,-6.899681 1.598117,-10.767596 6.391662,-20.425731 13.900484,-28.00698 7.85843,-7.934205 16.958286,-12.580293 28.50225,-14.552291 2.615263,-0.446752 9.61219,-0.627277 12.59209,-0.324882 12.11143,1.22904 22.73959,6.342525 31.31731,15.067594 6.23778,6.344893 10.71211,14.451105 12.76804,23.132033 2.77511,11.717408 1.39738,23.592838 -3.95478,34.088908 -6.0787,11.92084 -16.54125,20.86753 -29.39517,25.13626 -2.75357,0.91443 -5.97547,1.6721 -8.78888,2.06677 -1.87458,0.26299 -9.761823,0.46905 -11.253055,0.29399 z m -8.213898,-9.2033 c -5.997056,-0.56594 -8.709682,-1.18762 -11.689312,-2.67896 -2.537926,-1.27028 -4.786855,-3.23535 -5.890436,-5.14695 -1.837244,-3.18242 -1.412181,-7.09558 0.974911,-8.97507 1.789675,-1.4091 4.299987,-2.01379 6.887754,-1.65917 2.985917,0.40921 5.806714,1.49299 11.934838,4.58548 6.863474,3.4636 10.982658,5.46177 12.813688,6.21582 6.22727,2.56445 10.51136,3.50675 15.93498,3.50493 4.28363,-0.001 6.946,-0.50306 10.2674,-1.93447 6.44173,-2.77621 10.96918,-7.61334 13.04096,-13.93291 1.39803,-4.26452 1.40785,-9.07459 0.0271,-13.28959 -1.48008,-4.51827 -4.06988,-7.897069 -8.08394,-10.546771 -3.29865,-2.177474 -6.95251,-3.398423 -12.70523,-4.245515 -6.13191,-0.902935 -8.81188,-1.507512 -13.59152,-3.066206 -2.27154,-0.740765 -2.80189,-0.854059 -4.31479,-0.921736 -1.94824,-0.08711 -2.83847,0.08945 -5.405531,1.071856 -1.758079,0.672874 -1.781034,0.639386 0.805745,1.176205 0.948706,0.196882 3.203426,0.716687 5.010476,1.155115 5.30001,1.28589 7.99886,1.769547 14.62076,2.620171 5.33579,0.685428 8.13327,1.31583 11.08804,2.498631 4.44224,1.778221 8.3386,5.19694 10.26599,9.00748 2.05856,4.06984 2.521,8.81351 1.29777,13.31235 -1.88894,6.94718 -7.25309,12.41029 -14.51584,14.78365 -0.8346,0.27272 -1.82381,0.53639 -2.19826,0.58592 -0.44484,0.0588 -0.11137,-0.10225 0.96198,-0.4648 5.90944,-1.99595 10.30265,-5.63258 13.13998,-10.87707 2.79842,-5.17257 2.99478,-11.47022 0.51495,-16.51539 -0.8582,-1.74593 -1.73437,-2.95289 -3.21896,-4.43411 -1.66454,-1.66079 -3.39707,-2.88246 -5.46926,-3.856643 -3.15389,-1.482674 -5.96659,-2.181548 -11.86639,-2.948389 -6.4855,-0.843 -9.98507,-1.490282 -17.27219,-3.194693 -6.126182,-1.432886 -12.656101,-2.319989 -17.077426,-2.319989 -0.879962,0 -1.556095,-0.04385 -1.502524,-0.09739 0.261493,-0.261475 3.45052,-0.557506 6.017177,-0.558553 l 2.856383,-0.0011 -0.638629,-0.505659 c -0.790921,-0.626249 -1.483256,-1.63231 -1.732739,-2.517937 -0.30742,-1.091279 -0.208659,-2.867461 0.232563,-4.183057 0.274396,-0.818106 0.332373,-1.17153 0.192089,-1.17153 -0.438175,0 -3.18204,1.521675 -4.400351,2.440345 -0.710243,0.53554 -2.37356,2.043322 -3.696257,3.350593 -1.322696,1.307292 -2.723103,2.538641 -3.111995,2.736358 -0.455078,0.231359 -1.756354,0.532958 -3.651271,0.846277 -4.457074,0.736961 -8.999394,2.021202 -10.837379,3.064032 -0.406588,0.230682 -1.630545,1.294408 -2.719907,2.363819 -1.877232,1.842871 -2.078817,1.990663 -3.860535,2.830287 -3.514438,1.656189 -3.758325,2.487649 -1.41088,4.810029 1.8641,1.84416 2.020563,1.91079 4.7879,2.03868 3.246562,0.14998 5.096919,0.74949 4.789144,1.55153 -0.131008,0.3414 -0.538027,0.31769 -1.161518,-0.0677 l -0.51811,-0.3202 -1.390479,0.56387 c -0.764765,0.31011 -1.482888,0.5651 -1.595829,0.56661 -0.732292,0.0101 0.389962,0.88542 1.489889,1.16238 0.63451,0.15969 1.047679,0.14319 2.370405,-0.0954 1.248198,-0.22509 2.081055,-0.26732 3.771533,-0.1913 3.294281,0.14823 4.251566,-0.32006 5.479648,-2.6806 0.448615,-0.86228 0.917502,-1.49585 1.399118,-1.8905 0.3984,-0.32645 0.928062,-0.94009 1.17704,-1.36364 0.399506,-0.67959 0.45269,-0.93647 0.45269,-2.18615 0,-1.308026 -0.04657,-1.508575 -0.611775,-2.628454 l -0.611774,-1.212371 0.676619,0.73925 c 2.106983,2.302003 2.01771,5.377905 -0.210231,7.243225 -0.587384,0.49181 -1.005886,1.05197 -1.458673,1.95252 -0.349228,0.69459 -0.901686,1.49707 -1.227686,1.7833 -0.326,0.28623 -0.571672,0.5212 -0.545939,0.52217 0.02572,9.8e-4 1.081736,0.11177 2.346671,0.24613 3.193838,0.33932 2.970317,0.37791 2.515764,-0.43416 -0.209086,-0.37352 -0.663638,-1.00189 -1.010136,-1.39637 -0.453581,-0.51639 -0.554807,-0.71725 -0.361476,-0.71725 0.795578,0 1.871839,1.0258 3.853673,3.67301 2.641552,3.52844 5.937567,6.50365 9.127214,8.23885 2.326662,1.26574 5.663248,2.38033 7.125589,2.38033 1.179096,0 1.100378,-0.2866 -0.630693,-2.29637 -2.141733,-2.48655 -2.877628,-3.85346 -4.03152,-7.48837 -1.069878,-3.37024 -1.718575,-3.98953 -5.169541,-4.93517 -0.852099,-0.23347 -1.850146,-0.56594 -2.21787,-0.7388 -0.808617,-0.3801 -1.824885,-1.19643 -2.077802,-1.669 -0.182387,-0.34076 -0.177148,-0.34042 0.370731,0.0225 0.985669,0.65301 1.990799,1.01978 4.094989,1.49428 1.133421,0.25557 2.333142,0.5785 2.666038,0.7176 0.806367,0.33691 2.205318,1.6648 2.619298,2.48627 0.183164,0.36363 0.348692,0.67956 0.367608,0.70207 0.08052,0.0958 3.699537,-0.4856 4.840585,-0.77767 0.684767,-0.17521 2.107234,-0.61719 3.161027,-0.982 1.05379,-0.36479 2.09548,-0.66329 2.31485,-0.66329 0.79763,0 1.90094,0.46289 3.3373,1.40013 1.84641,1.20481 4.43112,2.42805 5.82053,2.7546 1.56081,0.36685 2.67547,0.47475 2.95701,0.28625 0.21364,-0.14299 0.19638,-0.24723 -0.12982,-0.78341 -0.46818,-0.76966 -1.04889,-2.01333 -1.42824,-3.05879 -0.36221,-0.99824 -1.09159,-1.84293 -1.77683,-2.05773 -0.42077,-0.13194 -3.08384,-0.50996 -3.6059,-0.51192 -0.0677,-2.5e-4 -0.1232,-0.0576 -0.1232,-0.12748 0,-0.0699 0.31417,-0.20806 0.69817,-0.30721 0.38401,-0.0991 2.00681,-0.52133 3.60626,-0.93814 3.61094,-0.94102 6.18774,-1.29045 9.57706,-1.29866 2.07588,-0.006 2.97726,0.0675 4.28768,0.34471 5.08902,1.07681 8.58807,3.59411 10.42644,7.501 0.8084,1.71801 1.12083,2.93595 1.2464,4.8587 0.42333,6.48197 -3.52803,12.67182 -10.19503,15.97055 -6.59721,3.26421 -13.68985,3.19116 -23.14246,-0.23833 -2.47265,-0.89709 -5.929569,-2.41015 -13.178754,-5.76818 -7.654707,-3.54588 -10.858615,-4.55538 -14.457625,-4.55538 -2.585645,0 -5.280234,1.01092 -6.868563,2.57687 -1.051253,1.03642 -1.90288,2.78923 -2.133721,4.39156 -0.257143,1.78492 0.01203,3.21553 0.973456,5.1723 1.935158,3.93891 6.423431,6.78281 12.218134,7.74178 2.548088,0.4217 2.713383,0.43539 5.257843,0.43539 1.219765,0 1.959016,-0.0244 1.642768,-0.0544 z M 69.575629,107.05772 c -0.06335,-0.0634 -0.115194,-0.25587 -0.115194,-0.42779 0,-0.23022 0.09741,-0.29876 0.369625,-0.26011 0.241639,0.0343 0.369626,0.1655 0.369626,0.3788 0,0.32587 -0.406132,0.52702 -0.624053,0.3091 z m 1.198032,-1.62228 c -0.181785,-0.21901 -0.174684,-0.30421 0.04344,-0.52234 0.352293,-0.3523 0.816779,-0.15659 0.749398,0.31579 -0.06419,0.44994 -0.497209,0.56275 -0.792836,0.20655 z m -4.74579,-0.30652 c -0.270957,-0.32649 -0.04432,-0.76009 0.397301,-0.76009 0.437496,0 0.591725,0.28425 0.378831,0.69819 -0.177266,0.34464 -0.518861,0.37188 -0.776132,0.0619 z m 6.304203,-1.75098 c -0.0638,-0.10322 -0.03869,-0.26499 0.05579,-0.35946 0.220772,-0.22076 0.735496,-0.0281 0.645675,0.24157 -0.09144,0.27461 -0.556307,0.35276 -0.701454,0.11797 z m -15.247261,-1.74708 c -0.185667,-0.18569 -0.121307,-0.66185 0.116068,-0.85887 0.462622,-0.38392 1.126734,0.28018 0.742793,0.7428 -0.197006,0.23738 -0.673208,0.30174 -0.858869,0.11603 z m 10.719768,-0.40073 c -0.887092,-0.13155 -1.908525,-0.62157 -2.368964,-1.13633 -0.320002,-0.35777 -0.30704,-0.356489 0.497934,0.0493 2.193124,1.10527 4.587604,0.55172 5.990453,-1.384862 0.667434,-0.921367 0.675149,-0.32562 0.0093,0.724194 -0.871927,1.374898 -2.369454,2.008828 -4.128802,1.747798 z m -8.342217,-1.02281 c -0.134579,-0.1622 -0.121113,-0.300389 0.05199,-0.533884 0.212586,-0.286756 0.257199,-0.291859 0.496086,-0.05666 0.286368,0.281807 0.183552,0.809484 -0.157727,0.809484 -0.114806,0 -0.29045,-0.0986 -0.390336,-0.21883 z M 67.1957,99.323776 c -1.029933,-0.197367 -2.172602,-2.039151 -1.911226,-3.080544 0.146202,-0.582554 -0.01338,-0.519901 -0.500046,0.19624 -0.427062,0.62848 -0.538392,0.549976 -0.259671,-0.183164 0.514279,-1.352655 2.339159,-2.458524 4.040954,-2.448785 1.145355,0.0058 1.840541,0.30226 2.742848,1.166718 0.652105,0.624775 0.876722,1.14681 0.246418,0.572717 -0.34438,-0.313688 -0.990599,-0.706287 -1.162507,-0.706287 -0.04139,0 0.06464,0.274377 0.235617,0.609698 0.537776,1.054822 0.317729,2.286286 -0.560659,3.137667 -0.759281,0.735914 -1.662792,0.967391 -2.871728,0.735721 z m 2.067597,-2.873146 c 0.347633,-0.347624 0.233959,-1.085381 -0.212293,-1.377783 -0.487499,-0.319411 -0.789311,-0.232563 -1.160536,0.334002 -0.255044,0.389241 -0.25546,0.449158 -0.0058,0.830213 0.2932,0.447488 1.030483,0.561694 1.378615,0.213568 z m 52.889333,2.552512 c 0.11293,-0.04559 0.29776,-0.04559 0.41071,0 0.11292,0.0456 0.0206,0.08285 -0.20536,0.08285 -0.22587,0 -0.31828,-0.03725 -0.20535,-0.08285 z m -3.49091,-0.165119 c -9.59606,-0.46241 -12.83168,-0.858657 -21.766841,-2.66569 -7.07584,-1.431004 -10.405439,-1.831616 -15.442148,-1.858005 -3.279735,-0.01746 -3.241317,-0.137954 0.150178,-0.472054 4.11379,-0.405288 9.225141,0.07354 15.94907,1.494336 8.575841,1.812 12.354801,2.39667 19.631241,3.037295 1.62635,0.143193 3.3636,0.321643 3.86054,0.396538 l 0.90354,0.136209 -1.14996,-0.0097 c -0.63247,-0.0058 -1.5935,-0.03201 -2.13562,-0.05802 z M 81.928025,98.560019 c -0.788981,-0.391261 -0.456609,-1.747991 0.428242,-1.747991 0.719247,0 1.154764,0.939606 0.698175,1.506289 -0.305188,0.378783 -0.685447,0.460371 -1.126417,0.241702 z m 6.65109,-0.01552 c -0.115641,-0.30127 0.05259,-0.582845 0.348263,-0.582845 0.338115,0 0.466214,0.310156 0.240461,0.582185 -0.252743,0.30451 -0.472035,0.304763 -0.588724,6.6e-4 z m -3.180022,-0.824817 c -0.313242,-0.377425 -0.135627,-0.825827 0.327112,-0.825827 0.294713,0 0.422674,0.09973 0.459501,0.358508 0.06714,0.471491 -0.502381,0.80982 -0.786613,0.467319 z M 75.744061,93.25235 c -0.285553,-0.114282 -0.256817,-0.628907 0.04928,-0.882988 0.210483,-0.174627 0.302648,-0.163373 0.531136,0.0652 0.413691,0.413689 -0.02948,1.03825 -0.580438,0.817891 z m 3.737332,-15.414829 c 0,-0.54557 0.02892,-0.574986 0.564567,-0.574986 0.51381,0 0.569186,0.04696 0.616043,0.52126 0.02833,0.286697 0.143971,0.551586 0.256817,0.588665 0.15309,0.05025 0.205361,-0.274473 0.205361,-1.27419 0,-0.999717 -0.05239,-1.324424 -0.205361,-1.274191 -0.112924,0.03706 -0.228508,0.301968 -0.256817,0.588666 -0.04656,0.472286 -0.10361,0.52124 -0.605643,0.52124 -0.502108,0 -0.558978,-0.0489 -0.605623,-0.52124 -0.02833,-0.286698 -0.143969,-0.551605 -0.256837,-0.588666 -0.152894,-0.05025 -0.20534,0.271739 -0.20534,1.260492 0,1.070848 0.04773,1.327917 0.246417,1.327917 0.172103,0 0.246416,-0.173463 0.246416,-0.574967 z m 3.449841,0.141448 c 0,-0.238482 0.226044,-0.800972 0.502322,-1.249976 0.765523,-1.244135 0.279345,-1.219746 -0.518408,0.02599 -0.130387,0.203517 -0.187044,0.213413 -0.257224,0.04482 -0.161626,-0.388506 -0.846065,-1.100457 -0.954294,-0.992537 -0.05802,0.05781 0.120493,0.472694 0.396732,0.921697 0.276278,0.449003 0.502322,1.011494 0.502322,1.249975 0,0.238481 0.07392,0.433598 0.164343,0.433598 0.09041,0 0.164343,-0.195117 0.164343,-0.433598 z m 3.490916,-0.07295 c 0.368578,-0.450245 0.36755,-1.165185 -0.002,-1.621968 -0.219428,-0.270983 -0.48874,-0.365163 -1.108877,-0.387826 l -0.819075,-0.02989 -0.04852,1.296912 -0.04851,1.29691 0.869814,-0.101483 c 0.604634,-0.07043 0.957438,-0.208523 1.157269,-0.452651 z m -1.519578,-0.807608 c 0,-0.790107 0.01746,-0.821404 0.459984,-0.821404 0.574249,0 0.854233,0.269235 0.854233,0.821404 0,0.552149 -0.279984,0.821383 -0.854233,0.821383 -0.442463,0 -0.459984,-0.03124 -0.459984,-0.821383 z m 2.927357,0.849595 c 0.07178,-0.487594 0.459869,-0.44782 0.927092,0.09507 0.446267,0.518504 0.741967,0.40849 0.361632,-0.134463 -0.219991,-0.314075 -0.222164,-0.391939 -0.01746,-0.597338 0.307671,-0.307691 0.302237,-0.939063 -0.0097,-1.19846 -0.135627,-0.112538 -0.579139,-0.24209 -0.985669,-0.2879 l -0.739174,-0.08324 v 1.34928 c 0,1.005963 0.05219,1.332069 0.205361,1.28164 0.112925,-0.03725 0.228954,-0.228158 0.257846,-0.424381 z m 0.02968,-1.189069 c 0,-0.452282 0.04599,-0.498442 0.450362,-0.451758 0.79455,0.09177 0.648562,0.945892 -0.16279,0.952994 -0.211842,0.0019 -0.287474,-0.129999 -0.287474,-0.501236 z m 4.196563,1.25046 c 1.042985,-1.042965 -0.270555,-2.790276 -1.494646,-1.988217 -0.613638,0.402067 -0.820841,0.955536 -0.577606,1.542765 0.362816,0.875905 1.41552,1.102203 2.072252,0.445452 z m -1.576294,-0.433461 c -0.414737,-0.774934 0.417532,-1.636947 1.142483,-1.183326 0.329132,0.205923 0.431734,0.977364 0.171716,1.290702 -0.300843,0.362524 -1.097527,0.297428 -1.31416,-0.107299 z m 4.361565,0.590276 c 0,-0.09042 -0.273815,-0.187044 -0.608457,-0.21481 l -0.608456,-0.05045 -0.0487,-1.004237 c -0.03007,-0.620253 -0.127284,-1.030159 -0.254004,-1.072031 -0.153089,-0.05045 -0.205341,0.272863 -0.205341,1.2687 v 1.336491 l 0.86246,-0.04966 c 0.474343,-0.02736 0.862459,-0.123596 0.862459,-0.213917 z m 0.73925,-0.08207 c 0.254004,-0.474636 1.192971,-0.449295 1.522646,0.04113 0.136596,0.203303 0.303208,0.316831 0.37011,0.252276 0.167059,-0.161238 -0.91964,-2.59324 -1.158743,-2.59324 -0.172685,0 -1.226847,2.135506 -1.226847,2.485399 0,0.264694 0.315434,0.14591 0.492834,-0.185492 z m 0.334372,-0.780328 c 0.0038,-0.06772 0.100318,-0.293587 0.215954,-0.501837 l 0.210114,-0.37863 0.194747,0.427428 c 0.259534,0.569592 0.25703,0.576247 -0.215935,0.576247 -0.22589,0 -0.408082,-0.05549 -0.40488,-0.123208 z m 3.94766,0.93883 c 0.392255,-0.20994 0.450505,-1.144171 0.0714,-1.144171 -0.15503,0 -0.246418,0.156387 -0.246418,0.421101 0,0.375718 -0.05724,0.415553 -0.530941,0.369626 -0.411555,-0.03997 -0.567128,-0.155029 -0.691869,-0.511906 -0.241528,-0.690997 0.04618,-1.021255 0.874762,-1.00389 0.799231,0.01746 0.936511,-0.341685 0.193446,-0.504903 -0.796761,-0.175014 -1.636714,0.436761 -1.647192,1.199703 -0.01359,1.011417 1.073972,1.657669 1.976906,1.17444 z m 2.745365,-0.08556 c 0.31388,-0.219855 0.36513,-0.406181 0.36513,-1.327917 0,-1.397515 -0.37413,-1.370351 -0.49284,0.0359 -0.0737,0.872433 -0.12263,0.978607 -0.47427,1.028317 -0.51867,0.07334 -0.67013,-0.207107 -0.67316,-1.246463 -0.002,-0.655993 -0.0615,-0.862461 -0.24894,-0.862461 -0.40783,0 -0.34079,1.876982 0.0821,2.299907 0.39386,0.39386 0.94394,0.421625 1.44194,0.07275 z m 2.62846,0 c 0.20082,-0.140671 0.3651,-0.35098 0.3651,-0.467378 0,-0.309923 -0.51348,-0.717054 -0.98567,-0.781491 -0.64664,-0.08829 -0.52031,-0.547183 0.15348,-0.55764 0.72214,-0.01164 0.84166,-0.337669 0.17715,-0.483618 -0.65444,-0.143776 -1.35891,0.280197 -1.28526,0.773479 0.0519,0.346768 0.17521,0.441358 1.005,0.769868 0.66316,0.262541 0.38691,0.569049 -0.39951,0.443299 -0.66937,-0.107105 -0.84966,0.09022 -0.34899,0.381772 0.41687,0.242808 0.90136,0.214052 1.31873,-0.0782 z m 3.83035,0.08324 c 0.48686,-0.260562 0.22044,-0.475547 -0.45374,-0.366153 -0.46466,0.07547 -0.64565,0.02968 -0.81837,-0.206486 -0.52317,-0.715463 -0.0237,-1.481259 0.87159,-1.335988 0.72042,0.116806 0.84156,-0.125925 0.1962,-0.393239 -0.61693,-0.255537 -1.21655,0.002 -1.60231,0.68989 -0.57045,1.016325 0.73807,2.183858 1.80663,1.611976 z m 2.86694,-0.230701 c 0.73098,-0.731004 0.40239,-1.926788 -0.58933,-2.144605 -0.984,-0.216129 -1.86033,0.787991 -1.48293,1.699153 0.36281,0.875887 1.4155,1.102183 2.07226,0.445452 z m -1.5763,-0.433481 c -0.41474,-0.774934 0.41752,-1.636928 1.14249,-1.183326 0.3291,0.205924 0.43173,0.977364 0.17171,1.290702 -0.30086,0.362524 -1.09752,0.297428 -1.31416,-0.107297 z m 4.27942,0.590276 c 0,-0.171521 -0.1725,-0.246417 -0.56714,-0.246417 h -0.56714 l -0.0489,-1.013686 c -0.0303,-0.627666 -0.12709,-1.039532 -0.25425,-1.0815 -0.1529,-0.05045 -0.20537,0.271135 -0.20537,1.260103 v 1.327917 h 0.82141 c 0.6206,0 0.82138,-0.06035 0.82138,-0.246417 z m 2.25966,-0.04113 c 0.0456,-0.138342 -0.12205,-0.205342 -0.51323,-0.205342 h -0.5808 l -0.0489,-1.013705 c -0.0303,-0.627665 -0.1271,-1.039513 -0.25426,-1.0815 -0.15309,-0.05045 -0.20534,0.272961 -0.20534,1.269126 v 1.33692 l 0.76746,-0.05006 c 0.42894,-0.02794 0.7973,-0.140672 0.83509,-0.255421 z m 1.02588,-1.040424 c 0,-0.988966 -0.0523,-1.310609 -0.20533,-1.260123 -0.12787,0.0423 -0.22403,0.459015 -0.25488,1.105268 -0.053,1.109654 0.0202,1.482772 0.2908,1.482772 0.10244,0 0.16938,-0.525218 0.16938,-1.327917 z m 2.62846,1.0815 c 0,-0.177925 -0.18258,-0.246418 -0.65711,-0.246418 -0.54759,0 -0.6571,-0.05471 -0.6571,-0.32855 0,-0.265974 0.10943,-0.328569 0.57497,-0.328569 0.31622,0 0.57496,-0.07392 0.57496,-0.164342 0,-0.09041 -0.25874,-0.164343 -0.57496,-0.164343 -0.46546,0 -0.57497,-0.06267 -0.57497,-0.328549 0,-0.274921 0.10943,-0.328549 0.6708,-0.328549 0.46362,0 0.64967,-0.06344 0.60234,-0.205361 -0.0423,-0.12709 -0.37601,-0.205342 -0.87614,-0.205342 h -0.80771 l -0.0495,1.050514 c -0.0271,0.577759 -0.0116,1.15069 0.0359,1.273141 0.1267,0.330317 1.73854,0.308274 1.73854,-0.02367 z m 1.14996,-1.0815 c 0,-0.988966 -0.0523,-1.310609 -0.20536,-1.260123 -0.12787,0.0423 -0.22403,0.459015 -0.25488,1.105268 -0.0529,1.109654 0.0202,1.482772 0.29079,1.482772 0.10246,0 0.16939,-0.525218 0.16939,-1.327917 z M 77.267385,72.91847 c 1.276731,-0.533464 1.829928,-1.684019 1.323143,-2.751955 -0.329267,-0.693888 -0.851828,-1.007595 -2.387083,-1.433044 -1.748854,-0.484626 -2.234715,-1.060543 -1.474852,-1.748222 0.426316,-0.38579 1.768863,-0.394423 2.664562,-0.01746 0.617633,0.260192 0.623473,0.259049 0.780307,-0.153478 0.234271,-0.61612 0.20699,-0.688435 -0.375873,-0.996883 -0.802893,-0.424865 -2.822176,-0.404202 -3.572497,0.03647 -0.683281,0.401388 -1.314782,1.280651 -1.314782,1.830627 0,1.085672 0.796353,1.722087 2.821935,2.255202 1.256202,0.330626 1.701809,0.706151 1.550971,1.307079 -0.208697,0.83157 -1.900825,0.974162 -3.245158,0.273465 -0.370906,-0.193254 -0.692448,-0.329578 -0.714532,-0.302783 -0.13586,0.164732 -0.413216,0.79391 -0.413216,0.93722 0,0.182581 0.799365,0.640936 1.477439,0.84719 0.697368,0.212131 2.281617,0.165895 2.879636,-0.08382 z m 14.866268,0.07509 c 0.317763,-0.08828 0.835238,-0.383169 1.149935,-0.655295 l 0.572173,-0.494774 -0.48131,-0.400263 c -0.474887,-0.394927 -0.486567,-0.396169 -0.872725,-0.09236 -0.930815,0.73217 -2.152772,0.756482 -3.140304,0.06247 -0.473509,-0.332779 -1.001755,-1.449592 -1.001755,-2.117926 0,-0.771131 0.56971,-1.845179 1.174247,-2.213758 0.784421,-0.478244 2.049394,-0.450051 2.804674,0.06247 l 0.582145,0.395064 0.429853,-0.448655 c 0.407927,-0.425796 0.415009,-0.461673 0.138924,-0.703803 -1.352499,-1.186313 -3.750294,-1.197277 -5.121693,-0.02347 -0.957049,0.819211 -1.370738,1.702007 -1.370526,2.924721 4.86e-4,2.722948 2.411707,4.462498 5.136324,3.705551 z m 7.816663,-0.150761 c 1.362144,-0.618623 1.706444,-1.607105 1.707754,-4.902808 l 9e-4,-2.340964 h -0.73924 -0.73926 l -0.002,2.505228 c -0.002,2.829472 -0.0994,3.174049 -1.015981,3.623051 -0.498383,0.244128 -0.718121,0.265995 -1.245765,0.123985 -1.188409,-0.320013 -1.261073,-0.515866 -1.319942,-3.558361 l -0.05219,-2.693825 h -0.728159 -0.728192 l 9.12e-4,2.340964 c 5.05e-4,1.287519 0.08285,2.636663 0.18297,2.998081 0.403891,1.458207 1.459507,2.210536 3.101732,2.210536 0.530438,0 1.181562,-0.126312 1.576895,-0.305809 z m 4.994234,-0.836926 v -1.149954 h 0.97348 0.97349 l 0.7156,1.026746 c 0.67487,0.968263 0.75976,1.031846 1.49069,1.116425 0.4263,0.04928 0.77446,0.04928 0.77368,0 -7.5e-4,-0.04928 -0.3591,-0.600734 -0.79633,-1.225334 l -0.79495,-1.135656 0.7142,-0.684321 c 0.68553,-0.656848 0.71418,-0.72338 0.71358,-1.657088 -7.8e-4,-1.226246 -0.37335,-1.874188 -1.34942,-2.346688 -0.61885,-0.29958 -1.01816,-0.350979 -2.72665,-0.350979 h -2.00161 v 3.778391 3.77839 h 0.65712 0.65712 z m 0,-3.772084 v -1.519598 l 1.33011,0.06035 c 1.21622,0.05529 1.36393,0.09973 1.72492,0.519378 0.45461,0.528516 0.49326,0.923696 0.15445,1.578874 -0.30038,0.580866 -0.53628,0.672971 -2.01849,0.78807 l -1.19101,0.09255 z m 7.88536,1.13418 V 65.58013 l -0.69821,0.05045 -0.69817,0.05045 -0.0414,3.531974 c -0.0227,1.942601 -0.006,3.624388 0.0359,3.737332 0.0443,0.117583 0.36048,0.205341 0.73955,0.205341 h 0.66228 z m 3.44983,2.309336 v -1.478504 h 1.81696 1.81698 l -0.051,-0.616042 -0.051,-0.616043 -1.766,-0.04657 -1.76598,-0.04656 V 67.811353 66.7491 h 1.97133 1.97134 v -0.574986 -0.574967 h -2.62845 -2.62845 v 3.778392 3.778409 h 0.65711 0.65712 z m -30.391461,0.739251 v -0.574967 h -2.14346 -2.143442 l 0.0489,-1.007438 0.0489,-1.007439 1.765977,0.03085 1.765996,0.03085 v -0.675378 -0.675396 l -1.765996,0.03105 -1.765977,0.03105 -0.04928,-0.925344 -0.04928,-0.925366 h 2.061677 2.061658 v -0.574967 -0.574987 h -2.710588 -2.71059 v 3.696259 3.696257 h 2.792741 2.792721 z M 125.15076,71.59265 c 0,-1.307079 0.0361,-1.455336 0.55145,-2.25883 1.04967,-1.63687 2.24127,-3.581723 2.24127,-3.658094 0,-0.0421 -0.31419,-0.07412 -0.69818,-0.07082 l -0.69819,0.0058 -1.04462,1.730044 c -0.92795,1.536829 -1.06702,1.696728 -1.24516,1.431568 -0.11021,-0.164149 -0.58772,-0.94535 -1.06094,-1.735942 l -0.86042,-1.437427 h -0.72823 c -0.40051,0 -0.72823,0.03317 -0.72823,0.07354 0,0.04055 0.62837,1.116231 1.39638,2.390558 l 1.39637,2.316962 v 1.305699 1.305681 h 0.73925 0.73925 z"
       id="path1" /></g></svg>
