<?xml version="1.0" encoding="UTF-8" standalone="no"?>
<!-- Created with Inkscape (http://www.inkscape.org/) -->

<svg
   width="210mm"
   height="297mm"
   viewBox="0 0 210 297"
   version="1.1"
   id="svg1"
   xml:space="preserve"
   inkscape:version="1.4.3 (unknown)"
   sodipodi:docname="Cover.svg"
   inkscape:export-filename="Cover.png"
   inkscape:export-xdpi="96"
   inkscape:export-ydpi="96"
   xmlns:inkscape="http://www.inkscape.org/namespaces/inkscape"
   xmlns:sodipodi="http://sodipodi.sourceforge.net/DTD/sodipodi-0.dtd"
   xmlns:xlink="http://www.w3.org/1999/xlink"
   xmlns="http://www.w3.org/2000/svg"
   xmlns:svg="http://www.w3.org/2000/svg"><sodipodi:namedview
     id="namedview1"
     pagecolor="#ffffff"
     bordercolor="#000000"
     borderopacity="0.25"
     inkscape:showpageshadow="2"
     inkscape:pageopacity="0.0"
     inkscape:pagecheckerboard="0"
     inkscape:deskcolor="#d1d1d1"
     inkscape:document-units="mm"
     inkscape:zoom="0.36346856"
     inkscape:cx="-206.34522"
     inkscape:cy="807.49763"
     inkscape:window-width="1440"
     inkscape:window-height="828"
     inkscape:window-x="0"
     inkscape:window-y="0"
     inkscape:window-maximized="1"
     inkscape:current-layer="layer6" /><defs
     id="defs1"><linearGradient
       id="swatch6"
       inkscape:swatch="solid"><stop
         style="stop-color:#ffffff;stop-opacity:0.53563203;"
         offset="0"
         id="stop6" /></linearGradient><linearGradient
       id="linearGradient3"
       inkscape:collect="always"><stop
         style="stop-color:#150f3f;stop-opacity:0.96062994;"
         offset="0.67552179"
         id="stop3" /><stop
         style="stop-color:#ffffff;stop-opacity:1;"
         offset="1"
         id="stop4" /></linearGradient><clipPath
       clipPathUnits="userSpaceOnUse"
       id="clipPath5"><g
         inkscape:label="Clip"
         id="use5" /></clipPath><linearGradient
       inkscape:collect="always"
       xlink:href="#linearGradient3"
       id="linearGradient4"
       x1="104.45941"
       y1="43.631256"
       x2="104.45941"
       y2="253.27802"
       gradientUnits="userSpaceOnUse"
       gradientTransform="matrix(1.0441806,0,0,1.0207972,-4.1005126,-3.0874448)" /></defs><g
     inkscape:groupmode="layer"
     id="layer6"
     inkscape:label="Background"
     sodipodi:insensitive="true"><rect
       style="fill:url(#linearGradient4);stroke:none;stroke-width:0;stroke-opacity:1"
       id="rect3"
       width="218.90909"
       height="303.08414"
       x="-4.4805632"
       y="-3.0874448"
       inkscape:label="Verlauf Seite" /></g><g
     inkscape:groupmode="layer"
     id="layer7"
     inkscape:label="Background Zahnrad"
     sodipodi:insensitive="true"><path
       id="path6"
       style="display:inline;fill:#ffffff;fill-opacity:0.971922;fill-rule:evenodd;stroke:none;stroke-width:0;stroke-opacity:1"
       d="M 105.23027,24.185087 A 48.884541,48.884541 0 0 0 56.345915,73.069442 48.884541,48.884541 0 0 0 105.23027,121.95431 48.884541,48.884541 0 0 0 154.11514,73.069442 48.884541,48.884541 0 0 0 105.23027,24.185087 Z m -0.25735,12.349634 A 36.534763,36.534763 0 0 1 141.50764,73.069442 36.534763,36.534763 0 0 1 104.97292,109.60416 36.534763,36.534763 0 0 1 68.4382,73.069442 36.534763,36.534763 0 0 1 104.97292,36.534721 Z" /></g><g
     inkscape:groupmode="layer"
     id="layer3"
     inkscape:label="Logo"
     sodipodi:insensitive="true"><path
       id="ftw-initialien-2"
       style="display:inline;fill:#000008;fill-opacity:1;fill-rule:evenodd;stroke:#ffffff;stroke-width:0.5;stroke-linecap:square;stroke-miterlimit:4;stroke-dasharray:none;stroke-opacity:1"
       inkscape:label="Ftw Initialien"
       d="m 110.3345,12.486987 -10.669004,7.14e-4 -2.295314,2.50495 1.131233,8.59035 A 49.790033,49.790033 0 0 0 85.946032,26.94717 l -3.315819,-8.004988 -3.240528,-1.021246 -9.239931,5.334321 -0.73484,3.316927 5.27453,6.873387 a 49.790033,49.790033 0 0 0 -9.190474,9.190871 l -6.874495,-5.274533 -3.316558,0.73484 -5.33469,9.239932 1.021246,3.240155 8.004988,3.316191 a 49.790033,49.790033 0 0 0 -3.3638,12.555011 l -8.590719,-1.13123 -2.504581,2.295682 v 10.669386 l 2.504581,2.295678 8.590719,-1.13123 a 49.790033,49.790033 0 0 0 3.3638,12.555012 l -8.004988,3.316191 -1.021246,3.240155 5.33469,9.239938 3.316558,0.73484 6.873756,-5.27453 a 49.790033,49.790033 0 0 0 9.190475,9.19084 l -5.27453,6.87338 0.73484,3.31693 9.239931,5.33432 3.240527,-1.02124 3.31582,-8.00499 a 49.790033,49.790033 0 0 0 12.555383,3.36417 l -1.131232,8.59035 2.295309,2.50495 H 110.3345 l 2.29532,-2.50569 -1.13123,-8.58961 a 49.790033,49.790033 0 0 0 12.55501,-3.36491 l 3.31619,8.00499 3.24053,1.02125 9.23956,-5.33433 0.73521,-3.31692 -5.27453,-6.87339 a 49.790033,49.790033 0 0 0 9.19047,-9.19047 l 6.87376,5.27416 3.31655,-0.73485 5.33544,-9.240295 -1.02236,-3.239784 -8.00461,-3.316191 a 49.790033,49.790033 0 0 0 3.36453,-12.555012 l 8.59072,1.13123 2.50458,-2.295685 V 67.611755 l -2.50458,-2.295682 -8.59072,1.13123 a 49.790033,49.790033 0 0 0 -3.36453,-12.554276 l 8.00461,-3.316191 1.02162,-3.240155 -5.3347,-9.239932 -3.31655,-0.73484 -6.87376,5.274533 a 49.790033,49.790033 0 0 0 -9.19047,-9.190846 l 5.27453,-6.874125 -0.73521,-3.316927 -9.23956,-5.334322 -3.24053,1.021246 -3.31619,8.004988 a 49.790033,49.790033 0 0 0 -12.55501,-3.364169 l 1.13123,-8.59035 z m -3.99898,12.860243 0.002,7.14e-4 1.59332,0.06422 1.59074,0.118106 c -0.0136,0.08856 -0.32168,0.519026 -0.92234,1.29252 l -1.69887,2.287561 -0.77876,1.130125 c 1.95123,3.242534 2.58294,5.046524 2.58651,5.247218 l -2.56437,-0.151323 c 0.0121,-0.164983 -0.23468,-0.725614 -0.73963,-1.683376 -0.52781,-0.952762 -0.83874,-1.427115 -0.9323,-1.423544 -0.004,0 -0.008,2.4e-5 -0.0114,7.15e-4 h -0.0121 c -0.0936,0 -0.38549,0.485036 -0.87472,1.455654 -0.4671,0.974902 -0.69143,1.543835 -0.67358,1.708104 l -1.25857,0.09817 -1.25413,0.139144 c -0.0179,-0.09142 0.15144,-0.579279 0.50712,-1.465619 l 1.18438,-2.557728 0.6684,-1.239003 c -2.1355,-2.980417 -3.510883,-4.44545 -3.516597,-4.661857 l 3.232407,-0.294895 c 0.0157,0.160698 0.32502,0.675772 0.92639,1.544971 0.5828,0.876341 0.91827,1.313951 1.00612,1.314665 0.004,0 0.009,3.45e-4 0.0129,-3.69e-4 h 0.0129 c 0.0879,-0.0036 0.42133,-0.453734 0.99984,-1.349359 0.59851,-0.888482 0.90278,-1.413454 0.91421,-1.574867 z m 16.10336,2.775486 2.41489,0.999101 -1.05409,2.363592 -2.28498,-0.945954 z m -11.278,0.194875 2.42043,0.388642 -0.0945,0.498627 c 0.69421,-0.294256 1.50285,-0.332178 2.42633,-0.1122 0.95491,0.238547 1.57409,0.707695 1.85906,1.406197 0.21855,0.541374 0.21857,1.161295 7.2e-4,1.859796 l -1.43056,4.643772 -1.97569,-0.54993 1.0493,-4.201613 c 0.0829,-0.328539 0.0472,-0.575023 -0.10704,-0.740006 -0.15427,-0.164984 -0.39353,-0.284051 -0.71564,-0.356901 -0.41996,-0.09285 -0.77724,-0.0814 -1.07292,0.03358 -0.29354,0.114989 -0.46995,0.329815 -0.52852,0.644784 l -0.78209,4.148097 -2.02403,-0.324791 z m -23.803484,0.466517 v 0.0015 l 0.890591,2.216698 -2.674726,1.175891 c 1.092748,2.283344 2.184985,4.564435 3.27559,6.843494 l -2.160598,1.120524 -3.708152,-6.619458 -2.592791,1.568592 -1.303962,-2.001892 c 2.617596,-1.70483 5.375766,-3.139727 8.274048,-4.305325 z m 7.550651,0.362806 h 7.14e-4 c 0.660648,0.01429 1.244123,0.200622 1.749073,0.559157 0.794206,0.5728 1.2998,1.516349 1.516921,2.831217 7.14e-4,0.0043 0.0015,0.0094 0.0022,0.01366 l -0.01218,0.0022 -0.0155,-0.0251 c -1.724828,0.299256 -3.423967,0.706339 -5.097371,1.221287 0.119988,0.382819 0.378335,0.705613 0.775438,0.967729 0.393532,0.262831 0.820779,0.332852 1.281447,0.210007 0.293542,-0.07713 0.535656,-0.166557 0.726351,-0.26869 0.190696,-0.102133 0.327938,-0.212089 0.410787,-0.32922 l 0.162764,-0.296372 0.0513,-0.278656 0.0037,-0.25282 1.779707,-0.349888 0.0299,0.439206 c -0.06214,0.814919 -0.338266,1.485827 -0.828217,2.011489 -0.484237,0.524947 -1.120761,0.889713 -1.909254,1.094693 -1.1406,0.314254 -2.089651,0.177725 -2.846719,-0.410787 -0.62208,-0.479238 -1.107878,-1.197693 -1.457129,-2.156169 -0.362821,-0.995615 -0.426482,-1.895297 -0.190077,-2.700931 0.307826,-1.023469 1.172195,-1.7308 2.592053,-2.121475 0.452812,-0.115703 0.877677,-0.169121 1.274066,-0.16055 z m -0.279025,1.506218 c -0.187736,-6.78e-4 -0.387424,0.02663 -0.600125,0.08231 -0.267117,0.07071 -0.494985,0.172779 -0.683538,0.306337 -0.187838,0.133558 -0.324343,0.261296 -0.410048,0.381998 l -0.187862,0.456553 c -0.03857,0.183553 -0.05714,0.320427 -0.055,0.410418 l 0.02104,0.358746 c 1.122031,-0.34568 2.255894,-0.644355 3.402923,-0.895758 l -0.131393,-0.287145 c -0.03643,-0.07142 -0.113544,-0.180616 -0.230676,-0.327744 L 95.37456,30.811103 c -0.135701,-0.07214 -0.322848,-0.121575 -0.56211,-0.148001 -0.05987,-0.0064 -0.120348,-0.0099 -0.183064,-0.01 z m 32.852968,0.187862 2.25988,1.26853 c -0.83349,1.394147 -1.66782,2.790239 -2.50274,4.187957 l 0.0174,0.04245 c 0.12284,0.06928 0.66562,-0.0039 1.62839,-0.218127 0.9749,-0.195695 1.50741,-0.353983 1.59811,-0.476114 l 1.20431,0.839659 1.17626,0.87878 c -0.0521,0.06214 -0.40271,0.156348 -1.05335,0.284193 l -1.88564,0.376831 c -0.57923,0.117131 -0.874,0.169346 -0.88542,0.15649 l -0.22514,2.470624 c -0.21069,1.628409 -0.36338,2.48963 -0.45766,2.583192 l -1.95354,-1.413209 c 0.1,-0.133558 0.17517,-0.740061 0.22588,-1.820668 0.0271,-1.087749 -0.003,-1.657056 -0.0915,-1.708477 l -0.0243,0.01735 c 0.0478,-0.07785 0.0479,-0.131612 0.001,-0.16018 -0.0536,-0.03214 -0.14302,-0.01983 -0.26943,0.03802 l -0.27977,0.239903 -1.34936,2.257668 -1.78819,-1.004272 z m -6.32862,0.567277 2.23847,0.924916 -2.7921,6.267729 -1.89486,-0.783561 z m -16.15356,5.974307 a 35.564309,35.564309 0 0 1 22.22752,7.801624 2.2988877,2.299603 0 0 0 -1.2977,1.130123 l -0.59532,1.171462 -0.38791,0.683539 -0.0203,0.02658 -0.13213,0.0063 -2.54518,-0.07972 -8.28401,-0.353579 a 2.2988877,2.299603 0 0 0 -0.0978,-0.0022 c -3.46797,0.01581 -6.46009,0.760496 -8.97641,2.233678 l 0.0373,-0.160549 c 0.0556,-0.25056 0.10894,-0.549945 0.16018,-0.898717 a 2.2988877,2.299603 0 0 0 -3.59189,-2.228506 c -0.63076,0.442191 -1.21907,0.760045 -1.764574,0.954076 -0.776838,0.308533 -1.903226,0.463346 -3.379303,0.464304 l -6.742733,-0.05094 a 2.2988877,2.299603 0 0 0 -0.01735,0 c -4.621483,-7.14e-4 -7.946996,0.555437 -10.736553,2.115574 -0.603458,0.339188 -1.174211,0.718564 -1.712534,1.138244 a 2.2988877,2.299603 0 0 0 -0.03026,0.02399 c -0.431,0.348122 -0.830921,0.72317 -1.199881,1.125323 A 35.564309,35.564309 0 0 1 104.99981,37.382578 Z m -36.470689,9.30526 1.442736,1.042282 c -7.14e-4,0.01928 0.138124,0.761117 0.415953,2.227399 0.32354,1.439857 0.543452,2.186339 0.658441,2.238477 l 1.731356,-2.586885 1.803328,1.311341 c -1.16417,1.601269 -2.196307,3.283415 -3.096217,5.046811 l -1.583355,-0.808655 c -0.03,0.0021 -0.267025,-0.692196 -0.712695,-2.0842 -0.402817,-1.422001 -0.64805,-2.168162 -0.73447,-2.239583 l -1.464143,2.607554 -1.983808,-1.024934 c 1.031927,-1.997443 2.206037,-3.90711 3.522874,-5.729607 z m 77.200209,1.069965 h 7.2e-4 l 1.46783,2.506421 c -0.13713,0.08642 -0.97861,0.760546 -2.52489,2.022563 -1.56341,1.237734 -2.34039,1.866742 -2.33111,1.88674 0.0136,0.02071 1.02557,-0.144257 3.0368,-0.494936 2.02408,-0.305684 3.11275,-0.485637 3.26488,-0.538489 l 0.52114,1.171461 0.4894,1.184011 c -0.14641,0.06928 -1.06424,0.648014 -2.75407,1.735048 -1.70412,1.05918 -2.55274,1.599184 -2.54703,1.619896 0.0107,0.02214 1.03776,-0.02457 3.08256,-0.140986 2.05194,-0.07071 3.15687,-0.123345 3.31471,-0.158341 l 0.42371,1.389961 0.38052,1.401767 c -0.0993,-0.025 -1.85333,-0.138586 -5.26013,-0.342137 -3.38895,-0.05357 -5.12646,-0.04048 -5.21216,0.04023 l -0.65216,-1.778602 c 0.15641,-0.04928 1.12484,-0.635579 2.90466,-1.759038 1.76554,-1.154885 2.63904,-1.752654 2.62047,-1.793364 -0.001,-0.0036 -0.004,-0.0079 -0.005,-0.01218 -0.0214,-0.05499 -1.09988,0.07991 -3.2361,0.404881 -2.1205,0.374249 -3.2425,0.601283 -3.36749,0.679847 l -0.42075,-0.848887 -0.44105,-0.837809 c 0.11856,-0.01928 1.35962,-1.201438 3.72438,-3.548346 2.28906,-2.442614 3.46245,-3.706152 3.5203,-3.789715 z m -14.90163,0.740005 a 35.564309,35.564309 0 0 1 9.73672,24.449007 35.564309,35.564309 0 0 1 -23.16461,33.332775 c 0.51434,-0.78311 0.9822,-1.47081 1.40398,-2.06317 0.81898,-1.14548 1.78912,-2.38242 3.71443,-4.758921 9.51166,-11.720066 13.12956,-17.604329 13.19205,-23.344714 0.008,-0.782822 -0.0701,-1.513477 -0.23437,-2.192338 -0.15852,-0.614182 -0.38726,-1.211865 -0.68611,-1.792993 a 1.5804853,1.5809771 0 0 0 -0.62929,-0.666191 l -0.82342,-0.428871 c -0.3774,-0.161927 -0.88162,-0.334702 -1.51285,-0.518184 a 1.5804853,1.5809771 0 0 0 -1.12866,0.07824 c -0.7299,0.327696 -1.37966,0.672454 -1.94911,1.034161 -0.51773,0.336324 -1.06726,0.762788 -1.64868,1.279237 a 1.5804853,1.5809771 0 0 0 -0.0974,2.284236 c 0.52012,0.543282 0.87399,1.049746 1.06221,1.51877 0.23661,0.519327 0.35637,1.243876 0.35875,2.174255 0.006,1.882798 -0.74018,4.326454 -2.24069,7.330304 l -0.30264,0.568386 c -1.49643,2.753054 -3.53386,5.645466 -7.27458,10.167065 l 0.28972,-6.819134 0.45324,-8.841325 0.24987,-3.916317 a 1.5804853,1.5809771 0 0 0 -0.37425,-1.126059 l 0.34988,-0.110725 c 1.06468,-0.384226 2.08183,-0.878991 3.05119,-1.484073 a 2.2988877,2.299603 0 0 0 1.10983,-1.614732 l 0.0553,-0.337709 a 2.2988877,2.299603 0 0 0 -2.58431,-2.648886 c -0.93823,0.128387 -2.04329,0.229863 -3.31582,0.30412 l 0.44659,-0.83006 c 0.56515,-1.216879 0.9328,-2.540504 1.10282,-3.970572 l 1.77675,-11.038835 c 2.62432,0.224214 3.33463,0.281672 3.96467,0.298956 l 0.52372,0.0051 c 0.77372,-0.01796 1.78604,0.02447 2.91537,-0.745176 0.95691,-0.702816 1.35361,-1.664355 1.60218,-2.512335 0.22252,-0.806984 0.42525,-1.828132 0.6075,-3.063366 z m -18.41601,5.464976 0.41005,0.0037 0.7592,0.02657 -1.80001,11.237764 a 2.2988877,2.299603 0 0 0 -0.001,0.0078 c -0.53592,3.861175 -1.2537,5.216033 -1.39882,5.154946 0.0201,0.111632 -0.53476,0.215064 -1.66455,0.310398 a 2.2988877,2.299603 0 0 0 -1.67895,0.849994 l -1.32463,1.637243 a 2.2988877,2.299603 0 0 0 0.0136,2.910939 c 1.7e-4,0 5.7e-4,0 7.1e-4,0 l 7.2e-4,0.0014 a 2.2988877,2.299603 0 0 1 -10e-4,-0.0014 c -7.121813,0.08191 -8.966519,0.07922 -10.645391,0.440677 l -1.168139,0.33476 c -1.920527,0.634308 -3.556216,1.589627 -4.907295,2.865907 l 0.384212,-0.659178 c 0.995229,-1.892382 1.633549,-4.14975 1.91516,-6.772253 a 2.2988877,2.299603 0 0 0 7.14e-4,-0.0057 l 0.373141,-2.929758 c 0.938235,-0.05392 1.719735,-0.103054 2.34403,-0.146893 0.662363,-0.05321 0.913631,-0.05599 1.375564,-0.132872 0.665238,-0.06992 1.349898,-0.27303 2.053933,-0.609354 0.848191,-0.503992 1.555112,-1.119366 2.120739,-1.84614 a 2.2988877,2.299603 0 0 0 -1.72693,-3.817405 h -5.34687 l 1.047081,-8.278474 6.005314,0.148742 a 2.2988877,2.299603 0 0 0 1.020137,-0.210379 c -0.26054,0.517412 -0.47235,1.056566 -0.63519,1.618053 -0.328553,1.134472 -0.440385,2.317197 -0.335495,3.547967 l 0.258731,1.585199 c 0.282094,1.134473 0.768614,2.26686 1.459714,3.397019 a 2.2988877,2.299603 0 0 0 3.28334,0.704208 l 2.96593,-2.063159 a 2.2988877,2.299603 0 0 0 0.7651,-2.872927 c -0.68105,-1.430072 -0.90993,-2.028641 -0.99614,-2.428915 -0.0388,-0.165769 -0.0702,-0.385362 -0.0941,-0.658442 -0.0531,-0.957211 0.0852,-1.63985 0.41521,-2.048031 0.19637,-0.305177 0.53134,-0.579299 1.00501,-0.822675 a 2.2988877,2.299603 0 0 0 0.0174,-0.0089 c 0.39368,-0.275472 1.63724,-0.432249 3.73066,-0.470574 z m -27.149195,0.379412 -1.259672,9.959271 -1.232729,1.865707 a 2.2988877,2.299603 0 0 0 0.612305,3.161174 l -0.415216,3.195131 a 2.2988877,2.299603 0 0 0 -7.14e-4,0.0057 c -0.300771,2.416023 -0.624672,4.182254 -0.971421,5.298521 -0.370696,1.051588 -0.673519,1.615175 -0.908676,1.690389 -0.249286,0.215585 -0.95853,0.46411 -2.650367,0.458397 l -3.350514,-0.09928 a 2.2988877,2.299603 0 0 0 -2.142881,1.308762 l -1.561949,3.274116 a 2.2988877,2.299603 0 0 0 -0.01735,0.03693 35.564309,35.564309 0 0 1 -1.927707,-11.550005 35.564309,35.564309 0 0 1 4.231508,-16.824539 c -0.799423,2.040788 -1.063513,4.22897 -0.792045,6.564472 l 0.198934,1.192867 c 0.203068,0.921279 0.56279,2.006428 1.07956,3.254929 a 2.2988877,2.299603 0 0 0 3.125743,1.2187 l 3.99456,-1.91147 a 2.2988877,2.299603 0 0 0 1.094693,-3.041961 c -0.696851,-1.502893 -1.110209,-2.583371 -1.24048,-3.241634 l -0.181218,-1.050774 c -0.138892,-1.649007 0.101441,-2.789207 0.721183,-3.420637 0.547422,-0.790007 1.745786,-1.238205 3.594475,-1.344566 z m -21.265683,0.158706 h 7.14e-4 v 3.71e-4 l 1.62137,0.73447 c 0.0029,0.01857 0.286477,0.719171 0.849993,2.101176 0.602797,1.347008 0.96636,2.034225 1.090633,2.062794 l 1.182534,-2.879198 2.028467,0.927128 c -0.822775,1.800535 -1.499699,3.653986 -2.031789,5.560939 l -1.712902,-0.47796 c -0.02857,0.0079 -0.399278,-0.625523 -1.112779,-1.900396 -0.677789,-1.31344 -1.065542,-1.997022 -1.164818,-2.049874 l -0.917165,2.846345 -2.14768,-0.61009 c 0.61488,-2.162434 1.386489,-4.267867 2.314136,-6.315334 z m -3.156008,8.884878 1.640563,0.362071 -0.197089,0.942627 3.513278,0.694981 c 0.452097,0.08928 0.693425,0.05644 0.724136,-0.09855 l 0.0764,-0.36502 c 0.0093,-0.08642 0.0184,-0.173412 0.02768,-0.259831 l 1.63798,0.361328 -0.174944,0.838552 c -0.150699,0.799206 -0.468728,1.290632 -0.952966,1.476328 -0.222835,0.06999 -0.496975,0.08143 -0.821943,0.03357 l -4.380248,-0.654382 -0.122166,0.876938 -1.666398,-0.214064 0.126595,-0.910892 -2.391273,-0.356907 0.384212,-2.217064 2.372082,0.469474 z m 86.314286,0.763259 7.1e-4,0.0015 c 0.45067,0.02571 0.86767,0.123016 1.25192,0.291571 0.97633,0.435671 1.56781,1.382019 1.77565,2.840449 0.15212,1.236305 -0.1074,2.219 -0.77876,2.948213 -0.66922,0.714929 -1.6697,1.096348 -3.001,1.145628 -0.004,0 -0.009,2.2e-5 -0.0136,7.15e-4 l -7.1e-4,-0.01214 0.0273,-0.01293 c -0.0778,-1.749112 -0.26578,-3.486217 -0.56432,-5.211048 -0.39496,0.07071 -0.74784,0.286664 -1.05852,0.646628 -0.31069,0.357111 -0.43487,0.771341 -0.3713,1.243437 0.0393,0.301398 0.0971,0.552645 0.1742,0.754767 0.0771,0.202123 0.16924,0.352037 0.27423,0.44917 l 0.27386,0.199301 0.26906,0.08637 0.2506,0.03578 0.12143,1.80997 -0.43995,-0.02657 c -0.80063,-0.166412 -1.43045,-0.525655 -1.88969,-1.078457 -0.45924,-0.547088 -0.74052,-1.224749 -0.84408,-2.032525 -0.16713,-1.171312 0.0892,-2.095095 0.76842,-2.77217 0.55423,-0.556373 1.3292,-0.946113 2.3241,-1.171091 0.51638,-0.116417 0.99982,-0.162269 1.45049,-0.136557 z m -0.16941,1.794836 c 0.19998,1.157031 0.35228,2.320493 0.45656,3.489662 l 0.30043,-0.09411 c 0.0757,-0.02714 0.19364,-0.08928 0.35505,-0.187124 l 0.37351,-0.335131 c 0.0886,-0.125702 0.1617,-0.304941 0.21813,-0.538489 0.0564,-0.233548 0.0663,-0.495479 0.0284,-0.786879 -0.0357,-0.274258 -0.10845,-0.51357 -0.21701,-0.717125 -0.10928,-0.203551 -0.2181,-0.355086 -0.32738,-0.455076 l -0.42997,-0.245811 c -0.17713,-0.06214 -0.31047,-0.097 -0.40046,-0.106289 z m -89.915403,3.934032 2.582087,0.177161 -0.102235,2.470254 -2.587624,-0.03692 z m 3.517707,0.267959 6.844968,0.465411 -0.08341,2.049131 -6.860838,-0.09411 z m 82.461086,3.504415 9.99027,0.12438 -0.1026,2.589842 -9.9685,-0.665827 z m -83.267527,1.391432 c 0.07142,1.73197 0.240786,3.454442 0.50933,5.167128 l 1.209847,-0.188967 c -0.23212,-1.484138 -0.388396,-2.97636 -0.469102,-4.476211 l 2.389797,-0.127701 c 0.07571,1.419144 0.224002,2.830296 0.443265,4.233727 l 3.922589,-0.614153 0.424074,2.259882 -9.744466,2.13808 c -0.599225,-2.733299 -0.956476,-5.497823 -1.072178,-8.293973 z m 55.007767,1.809977 -0.27349,0.108503 a 1.5804853,1.5809771 0 0 0 -0.77802,0.666191 c -1.20117,2.038025 -4.33,6.801843 -7.52186,11.515316 -1.08958,1.609718 -2.154,3.166241 -3.19329,4.669605 l 2.35141,-13.371416 0.61194,-0.310397 c 0.57329,-0.33296 1.137,-0.768795 1.69113,-1.307284 a 1.5804853,1.5809771 0 0 0 0.31113,-1.886369 c 2.91959,0.0076 5.18656,-0.02043 6.80105,-0.08415 z m 33.80483,1.856101 1.66713,0.212593 -0.12585,0.910887 2.392,0.353951 -0.38162,2.217064 -2.37245,-0.466517 -0.20337,0.979909 -1.6413,-0.35985 0.19635,-0.94337 -3.51401,-0.68981 c -0.4521,-0.08856 -0.69342,-0.05607 -0.72413,0.09891 l -0.0757,0.36502 -0.0281,0.25946 c -0.54637,-0.119988 -1.09266,-0.240204 -1.6376,-0.359478 l 0.1742,-0.838188 c 0.14856,-0.79992 0.46578,-1.2921 0.95002,-1.477795 0.22283,-0.07071 0.49626,-0.08218 0.82194,-0.03435 l 4.38173,0.648478 z m -50.764083,2.494986 -4.121154,25.468403 a 35.564309,35.564309 0 0 1 -21.123956,-19.092903 2.2988877,2.299603 0 0 0 0.656225,0.161284 c 1.136992,0.105418 2.053648,0.15902 2.75002,0.16092 1.23661,0.012 2.433159,-0.152464 3.589308,-0.493087 2.051278,-0.654906 4.053838,-1.912866 6.007893,-3.774588 l 1.419853,-1.364121 c -0.609203,1.060695 -1.012784,2.200888 -1.210584,3.420638 l -0.121427,1.547181 c -0.0019,0.843187 0.09273,1.65917 0.283822,2.447742 0.24761,0.998893 0.644816,1.95929 1.191761,2.881048 a 1.5804853,1.5809771 0 0 0 2.202673,0.540332 l 3.775694,-2.365807 a 1.5804853,1.5809771 0 0 0 0.482019,-2.207473 C 92.89859,87.444348 92.468563,86.482144 92.32153,85.646141 l -0.109986,-1.179218 c 0.02108,-0.905945 0.236811,-1.580506 0.647736,-2.023662 0.263417,-0.319554 0.651879,-0.573507 1.164818,-0.761789 a 1.5804853,1.5809771 0 0 0 0.031,-0.01143 l 0.372034,-0.12438 c 0.620695,-0.183254 1.480479,-0.291093 3.402923,-0.342873 z m 14.081533,7.909397 c -0.0503,1.453062 -0.10848,2.957684 -0.17458,4.514221 -0.22126,5.202853 -0.52154,10.591095 -0.77802,13.182455 a 1.5804853,1.5809771 0 0 0 0.33623,1.14046 35.564309,35.564309 0 0 1 -6.29541,0.56174 35.564309,35.564309 0 0 1 -7.074161,-0.71048 l 1.073286,-0.32959 a 1.5804853,1.5809771 0 0 0 0.842608,-0.62153 z" /></g><g
     inkscape:groupmode="layer"
     id="layer4"
     inkscape:label="Schrift"
     sodipodi:insensitive="true"><g
       id="g3"
       inkscape:label="Text"
       inkscape:transform-center-x="-0.72794012"
       inkscape:transform-center-y="-1.4558804"
       transform="translate(0,29.69999)"><text
         xml:space="preserve"
         style="font-style:normal;font-variant:normal;font-weight:950;font-stretch:normal;font-size:25.4px;font-family:'Fira Sans';-inkscape-font-specification:'Fira Sans weight=950';letter-spacing:0.264583px;writing-mode:lr-tb;direction:ltr;fill:#fafff0;fill-opacity:1;stroke:none;stroke-width:0;stroke-opacity:1"
         x="61.539536"
         y="161.43863"
         id="text1"
         inkscape:label="Manual"
         sodipodi:insensitive="true"><tspan
           sodipodi:role="line"
           id="tspan1"
           style="font-style:normal;font-variant:normal;font-weight:bold;font-stretch:normal;font-size:25.4px;font-family:'Fira Sans';-inkscape-font-specification:'Fira Sans Bold';letter-spacing:0.264583px;fill:#fafff0;fill-opacity:1;stroke-width:0"
           x="61.539536"
           y="161.43863">Manual</tspan></text><text
         xml:space="preserve"
         style="font-style:normal;font-variant:normal;font-weight:600;font-stretch:normal;font-size:19.7556px;font-family:'Fira Sans';-inkscape-font-specification:'Fira Sans Semi-Bold';letter-spacing:0px;writing-mode:lr-tb;direction:ltr;fill:#fafff0;fill-opacity:1;stroke:none;stroke-width:0;stroke-opacity:1"
         x="91.902054"
         y="187.47527"
         id="text2"
         inkscape:label="for"
         sodipodi:insensitive="true"><tspan
           sodipodi:role="line"
           id="tspan2"
           style="font-size:19.7556px;letter-spacing:0px;fill:#fafff0;fill-opacity:1;stroke-width:0"
           x="91.902054"
           y="187.47527">for</tspan></text><text
         xml:space="preserve"
         style="font-style:normal;font-variant:normal;font-weight:950;font-stretch:normal;font-size:19.7556px;font-family:'Fira Sans';-inkscape-font-specification:'Fira Sans weight=950';letter-spacing:0.79375px;writing-mode:lr-tb;direction:ltr;fill:#000100;fill-opacity:1;stroke:#ffffff;stroke-width:0.529167;stroke-dasharray:none;stroke-opacity:1"
         x="61.347511"
         y="213.61351"
         id="programname"
         inkscape:label="Programmname"><tspan
           sodipodi:role="line"
           id="tspan3"
           style="font-style:normal;font-variant:normal;font-weight:950;font-stretch:normal;font-family:'Fira Sans';-inkscape-font-specification:'Fira Sans weight=950';letter-spacing:0.79375px;fill:#000100;fill-opacity:1;stroke:#ffffff;stroke-width:0.529167;stroke-dasharray:none;stroke-opacity:1"
           x="61.347511"
           y="213.61351">{{programname}}</tspan></text></g><g
       id="g5"
       inkscape:label="Metadaten"><text
         xml:space="preserve"
         style="font-style:normal;font-variant:normal;font-weight:normal;font-stretch:normal;font-size:12.7px;font-family:'Fira Sans';-inkscape-font-specification:'Fira Sans';letter-spacing:0px;writing-mode:lr-tb;direction:ltr;fill:#000100;fill-rule:evenodd;stroke:#ffffff;stroke-width:0.529167"
         x="11.32409"
         y="276.41074"
         id="text4"
         inkscape:label="Version-text"><tspan
           sodipodi:role="line"
           id="tspan4"
           style="font-style:normal;font-variant:normal;font-weight:600;font-stretch:normal;font-size:12.7px;font-family:'Fira Sans';-inkscape-font-specification:'Fira Sans Semi-Bold';letter-spacing:0px;stroke-width:0.529167"
           x="11.32409"
           y="276.41074">Version:</tspan></text><text
         xml:space="preserve"
         style="font-style:normal;font-variant:normal;font-weight:bold;font-stretch:normal;font-size:12.7px;font-family:'Fira Sans';-inkscape-font-specification:'Fira Sans, Bold';font-variant-ligatures:normal;font-variant-caps:normal;font-variant-numeric:normal;font-variant-east-asian:normal;letter-spacing:0px;writing-mode:lr-tb;direction:ltr;fill:#000100;fill-rule:evenodd;stroke:#ffffff;stroke-width:0.529167"
         x="60.978752"
         y="276.41074"
         id="version"
         inkscape:label="Version"><tspan
           sodipodi:role="line"
           id="tspan5"
           style="letter-spacing:0px"
           x="60.978752"
           y="276.41074">{{version}}</tspan></text></g></g></svg>
